<?xml version="1.0" encoding="UTF-8" standalone="no"?>
<svg
   xmlns:dc="http://purl.org/dc/elements/1.1/"
   xmlns:cc="http://creativecommons.org/ns#"
   xmlns:rdf="http://www.w3.org/1999/02/22-rdf-syntax-ns#"
   xmlns:svg="http://www.w3.org/2000/svg"
   xmlns="http://www.w3.org/2000/svg"
   viewBox="0 0 529.20001 285.67999"
   height="285.67999"
   width="529.20001"
   xml:space="preserve"
   id="svg2"
   version="1.1"><metadata
     id="metadata8"><rdf:RDF><cc:Work
         rdf:about=""><dc:format>image/svg+xml</dc:format><dc:type
           rdf:resource="http://purl.org/dc/dcmitype/StillImage" /></cc:Work></rdf:RDF></metadata><defs
     id="defs6" /><g
     transform="matrix(1.3333333,0,0,-1.3333333,0,285.68)"
     id="g10"><g
       transform="scale(0.1)"
       id="g12"><path
         id="path14"
         style="fill:#1478c7;fill-opacity:1;fill-rule:nonzero;stroke:none"
         d="M 3969.03,0 H 0 V 2142.6 H 3969.03 V 0" /><path
         id="path16"
         style="fill:#ffffff;fill-opacity:1;fill-rule:nonzero;stroke:none"
         d="M 3969.03,465.586 H 1249.84 V 0 h 2719.19 v 465.586" /><path
         id="path18"
         style="fill:#1478c7;fill-opacity:1;fill-rule:nonzero;stroke:none"
         d="m 1370.94,202.039 v -11.082 c 0,-15.996 6.15,-20.176 16.49,-20.176 8.62,0 14.03,6.399 14.03,17.227 0,10.586 -5.41,16.496 -16.25,23.137 l -25.59,15.75 c -15.01,9.113 -25.11,25.351 -25.11,48.488 0,31.258 20.68,48.484 52.43,48.484 28.79,0 52.92,-15.754 52.92,-54.148 v -2.949 h -38.4 v 3.691 c 0,15.262 -5.66,21.656 -15.01,21.656 -8.38,0 -13.05,-5.164 -13.05,-13.047 0,-9.597 3.45,-15.007 13.78,-21.16 l 26.34,-16.008 c 15.75,-9.589 26.34,-21.648 26.34,-48.726 0,-36.672 -19.94,-54.145 -53.41,-54.145 -36.92,0 -54.4,16.985 -54.4,49.961 v 13.047 h 38.89" /><path
         id="path20"
         style="fill:#1478c7;fill-opacity:1;fill-rule:nonzero;stroke:none"
         d="m 1584.88,143.215 h -42.58 v 176.719 h 61.78 c 24.61,0 51.69,-8.86 51.69,-53.911 0,-43.562 -26.59,-53.894 -51.69,-53.894 h -19.2 z m 0,100.664 h 7.63 c 10.59,0 20.67,5.164 20.67,22.644 0,17.469 -9.1,21.661 -21.41,21.661 h -6.89 v -44.305" /><path
         id="path22"
         style="fill:#1478c7;fill-opacity:1;fill-rule:nonzero;stroke:none"
         d="m 1824.66,319.934 39.13,-176.719 h -41.84 l -6.4,35.437 h -32.48 l -5.42,-35.437 h -42.33 l 38.39,176.719 z m -14.77,-109.536 -11.32,77.786 h -0.25 l -11.07,-77.786 h 22.64" /><path
         id="path24"
         style="fill:#1478c7;fill-opacity:1;fill-rule:nonzero;stroke:none"
         d="m 2069.62,213.113 v -16.492 c 0,-40.117 -18.21,-57.59 -57.6,-57.59 -39.13,0 -57.59,17.231 -57.59,57.832 v 77.043 c 0,27.813 17.23,49.961 57.59,49.961 39.87,0 57.6,-22.644 57.6,-50.207 v -12.058 h -42.59 v 15.996 c 0,9.355 -8.85,13.781 -15.5,13.781 -7.14,0 -14.52,-3.938 -14.52,-13.039 v -88.113 c 0,-13.293 5.66,-18.711 14.52,-18.711 9.11,0 15.5,4.922 15.5,18.211 v 23.386 h 42.59" /><path
         id="path26"
         style="fill:#1478c7;fill-opacity:1;fill-rule:nonzero;stroke:none"
         d="m 2171.32,319.934 h 98.95 v -33.481 h -56.38 v -34.695 h 50.47 v -33.477 h -50.47 v -41.593 h 56.38 v -33.473 h -98.95 v 176.719" /><path
         id="path28"
         style="fill:#1478c7;fill-opacity:1;fill-rule:nonzero;stroke:none"
         d="m 2547.73,202.039 v -11.082 c 0,-15.996 6.16,-20.176 16.5,-20.176 8.61,0 14.02,6.399 14.02,17.227 0,10.586 -5.41,16.496 -16.24,23.137 l -25.59,15.75 c -15.03,9.113 -25.11,25.351 -25.11,48.488 0,31.258 20.67,48.484 52.42,48.484 28.8,0 52.92,-15.754 52.92,-54.148 v -2.949 h -38.4 v 3.691 c 0,15.262 -5.65,21.656 -15.01,21.656 -8.36,0 -13.04,-5.164 -13.04,-13.047 0,-9.597 3.44,-15.007 13.78,-21.16 l 26.33,-16.008 c 15.75,-9.589 26.34,-21.648 26.34,-48.726 0,-36.672 -19.93,-54.145 -53.41,-54.145 -36.91,0 -54.39,16.985 -54.39,49.961 v 13.047 h 38.88" /><path
         id="path30"
         style="fill:#1478c7;fill-opacity:1;fill-rule:nonzero;stroke:none"
         d="m 2751.84,319.934 22.14,-55.871 22.16,55.871 h 41.11 l -42.84,-98.204 v -78.515 h -42.57 v 78.515 l -43.07,98.204 h 43.07" /><path
         id="path32"
         style="fill:#1478c7;fill-opacity:1;fill-rule:nonzero;stroke:none"
         d="m 2967.25,202.039 v -11.082 c 0,-15.996 6.15,-20.176 16.49,-20.176 8.62,0 14.03,6.399 14.03,17.227 0,10.586 -5.41,16.496 -16.25,23.137 l -25.59,15.75 c -15.02,9.113 -25.11,25.351 -25.11,48.488 0,31.258 20.68,48.484 52.42,48.484 28.8,0 52.92,-15.754 52.92,-54.148 v -2.949 h -38.39 v 3.691 c 0,15.262 -5.66,21.656 -15.02,21.656 -8.36,0 -13.04,-5.164 -13.04,-13.047 0,-9.597 3.44,-15.007 13.79,-21.16 l 26.32,-16.008 c 15.75,-9.589 26.34,-21.648 26.34,-48.726 0,-36.672 -19.93,-54.145 -53.41,-54.145 -36.91,0 -54.39,16.985 -54.39,49.961 v 13.047 h 38.89" /><path
         id="path34"
         style="fill:#1478c7;fill-opacity:1;fill-rule:nonzero;stroke:none"
         d="m 3202.85,143.215 h -39.13 v 143.238 h -33.47 v 33.481 h 103.86 v -33.481 h -31.26 V 143.215" /><path
         id="path36"
         style="fill:#1478c7;fill-opacity:1;fill-rule:nonzero;stroke:none"
         d="m 3329.9,319.934 h 98.95 v -33.481 h -56.37 v -34.695 h 50.46 v -33.477 h -50.46 v -41.593 h 56.37 v -33.473 h -98.95 v 176.719" /><path
         id="path38"
         style="fill:#1478c7;fill-opacity:1;fill-rule:nonzero;stroke:none"
         d="m 3585.68,319.934 13.78,-71.621 c 2.96,-14.524 4.43,-39.141 6.41,-55.872 h 0.49 c 1.97,15.997 3.93,43.313 6.39,55.872 l 13.79,71.621 h 59.32 V 143.215 h -40.61 v 62.019 c 0,16.985 1.23,62.278 2.21,77.039 h -0.24 l -26.34,-139.058 h -29.53 l -26.34,139.058 h -0.24 c 0.73,-12.3 2.21,-52.918 2.21,-76.793 v -62.265 h -40.61 v 176.719 h 59.31" /><path
         id="path40"
         style="fill:#1478c7;fill-opacity:1;fill-rule:nonzero;stroke:none"
         d="m 3825.97,202.039 v -11.082 c 0,-15.996 6.15,-20.176 16.49,-20.176 8.61,0 14.02,6.399 14.02,17.227 0,10.586 -5.41,16.496 -16.23,23.137 l -25.6,15.75 c -15.02,9.113 -25.11,25.351 -25.11,48.488 0,31.258 20.67,48.484 52.42,48.484 28.8,0 52.92,-15.754 52.92,-54.148 v -2.949 h -38.4 v 3.691 c 0,15.262 -5.65,21.656 -15,21.656 -8.37,0 -13.05,-5.164 -13.05,-13.047 0,-9.597 3.45,-15.007 13.79,-21.16 l 26.33,-16.008 c 15.75,-9.589 26.33,-21.648 26.33,-48.726 0,-36.672 -19.93,-54.145 -53.4,-54.145 -36.92,0 -54.4,16.985 -54.4,49.961 v 13.047 h 38.89" /><path
         id="path42"
         style="fill:#ffffff;fill-opacity:1;fill-rule:nonzero;stroke:none"
         d="m 1079.24,1599.41 c -41.35,181.18 -145.138,328.5 -159.396,352.58 -22.676,-33.83 -105.43,-163.86 -147.422,-308.3 -45.918,-160.9 -52.656,-303.73 -36.797,-444.33 15.684,-140.65 75.156,-284.946 75.156,-284.946 31.582,-75.84 78.867,-156.953 109.688,-196.816 45.117,58.632 148.961,233.574 181.331,462.242 17.99,126.98 18.71,238.3 -22.56,419.57 M 919.844,762.656 c -20.313,38.301 -51.934,111.231 -54.942,223.828 -0.761,109.026 42.871,202.426 55.567,221.856 11.386,-19.43 48.906,-100.76 53.437,-212.031 2.989,-108.887 -33.086,-194.59 -54.062,-233.653 m 147.386,529.184 c -1.57,-69.14 -9.83,-142.13 -20.34,-185.73 3.77,75.2 -5.29,181.18 -22.55,263.99 -17.31,82.77 -66.215,220.88 -105.277,284.98 -36.075,-60.96 -80.547,-180.57 -103.77,-284.26 -23.359,-103.85 -24.102,-229.39 -24.102,-267.03 -6.171,31.8 -21.738,144.96 -17.304,258.71 3.574,93.89 25.625,190.29 37.636,234.71 45.879,148.14 97.754,242.81 107.54,257.79 9.765,-14.98 75.175,-131.62 109.027,-254.16 33.77,-122.54 40.52,-239.84 39.14,-309" /><path
         id="path44"
         style="fill:#ffffff;fill-opacity:1;fill-rule:nonzero;stroke:none"
         d="M 990.059,675.391 H 675.352 v -211.25 c 0.273,0.312 0.507,0.625 0.82,0.937 74.141,74.063 194.336,74.063 268.437,0 74.201,-74.18 74.201,-194.414 0,-268.515 -0.332,-0.391 -0.605,-0.625 -0.957,-0.958 v 0 c -0.312,-0.371 -0.761,-0.722 -1.054,-1.054 C 868.672,121.191 771.973,84.3359 675.352,84.3359 578.34,84.3359 481.25,121.504 407.109,195.449 276.641,325.977 261.152,527.93 360.664,675.391 c 13.438,19.922 28.809,38.789 46.445,56.425 74.141,74.082 171.231,110.997 268.243,110.997 V 1350.53 C 302.344,1350.53 0,1048.07 0,675.391 0,302.383 302.344,0 675.352,0 869.883,0 1045.08,82.207 1168.26,213.73 V 675.391 H 990.059" /><path
         id="path46"
         style="fill:#ffffff;fill-opacity:1;fill-rule:nonzero;stroke:none"
         d="m 1567.11,799.063 c 0,-47.364 -5.88,-120.879 -100.59,-120.879 h -112.11 c -94.64,0 -100.41,73.515 -100.41,120.879 v 434.707 c 0,47.4 5.77,120.84 100.41,120.84 h 112.11 c 94.71,0 100.59,-73.44 100.59,-120.84 v -95.68 h -135.39 v 110.33 c 0,11.52 -8.67,22.24 -21.17,22.24 -7.76,0 -21.27,-4.72 -21.27,-22.24 V 787.207 c 0,-17.344 13.51,-22.246 21.27,-22.246 12.5,0 21.17,10.723 21.17,22.246 v 148.106 h -20.26 v 74.397 h 155.65 V 799.063" /><path
         id="path48"
         style="fill:#ffffff;fill-opacity:1;fill-rule:nonzero;stroke:none"
         d="m 1767.97,932.285 23.22,338.065 h 7.81 l 23.11,-338.065 h -54.14 M 1618.32,678.184 h 132.31 l 12.5,179.707 h 63.76 l 12.56,-179.707 h 132.52 l -70.62,676.426 h -212.62 l -70.41,-676.426" /><path
         id="path50"
         style="fill:#ffffff;fill-opacity:1;fill-rule:nonzero;stroke:none"
         d="m 2016.78,763.242 129.45,507.048 h -115.88 v 84.32 h 255.04 v -84.1 L 2156,764.902 h 137.13 v -86.718 h -276.35 v 85.058" /><path
         id="path52"
         style="fill:#ffffff;fill-opacity:1;fill-rule:nonzero;stroke:none"
         d="m 2482.29,992.637 v 278.083 h 17.34 c 14.57,0 25.12,-12.59 25.12,-33.83 v -210.52 c 0,-21.23 -10.55,-33.733 -25.12,-33.733 h -17.34 M 2346.93,678.184 h 135.36 v 230.019 h 77.24 c 94.83,0 100.67,73.34 100.67,120.747 v 204.82 c 0,47.4 -5.84,120.84 -100.67,120.84 h -212.6 V 678.184" /><path
         id="path54"
         style="fill:#ffffff;fill-opacity:1;fill-rule:nonzero;stroke:none"
         d="m 2846.52,1012.85 v 257.87 h 17.35 c 14.49,0 25.15,-12.59 25.15,-33.83 v -190.21 c 0,-21.35 -10.66,-33.83 -25.15,-33.83 h -17.35 m 195.12,-334.666 -66.7,263.75 c 48.4,19.394 49.36,63.786 49.36,82.226 v 209.61 c 0,47.4 -5.82,120.84 -100.47,120.84 H 2711.25 V 678.184 h 135.27 v 250.332 h 9.69 l 46.39,-250.332 h 139.04" /><path
         id="path56"
         style="fill:#ffffff;fill-opacity:1;fill-rule:nonzero;stroke:none"
         d="m 3253.3,787.109 c 0,-11.425 -8.57,-22.207 -21.17,-22.207 -7.83,0 -21.33,4.864 -21.33,22.207 v 461.311 c 0,17.5 13.5,22.24 21.33,22.24 12.6,0 21.17,-10.72 21.17,-22.24 V 787.109 m -177.73,11.954 c 0,-47.364 5.84,-120.879 100.47,-120.879 h 112.12 c 94.63,0 100.41,73.515 100.41,120.879 v 434.707 c 0,47.4 -5.78,120.84 -100.41,120.84 h -112.12 c -94.63,0 -100.47,-73.44 -100.47,-120.84 V 799.063" /><path
         id="path58"
         style="fill:#ffffff;fill-opacity:1;fill-rule:nonzero;stroke:none"
         d="m 3791.6,1354.61 h 175.74 V 678.184 h -135.15 v 424.196 h -4.92 l -69.56,-424.196 h -108.2 L 3580,1102.38 h -4.92 V 678.184 h -135.2 v 676.426 h 175.78 l 87.91,-475.43 88.03,475.43" /></g></g></svg>