<?xml version="1.0" encoding="UTF-8" standalone="no"?>
<svg
   xmlns:dc="http://purl.org/dc/elements/1.1/"
   xmlns:cc="http://creativecommons.org/ns#"
   xmlns:rdf="http://www.w3.org/1999/02/22-rdf-syntax-ns#"
   xmlns:svg="http://www.w3.org/2000/svg"
   xmlns="http://www.w3.org/2000/svg"
   viewBox="0 0 529.1333 260.86667"
   height="260.86667"
   width="529.1333"
   xml:space="preserve"
   id="svg2"
   version="1.1"><metadata
     id="metadata8"><rdf:RDF><cc:Work
         rdf:about=""><dc:format>image/svg+xml</dc:format><dc:type
           rdf:resource="http://purl.org/dc/dcmitype/StillImage" /></cc:Work></rdf:RDF></metadata><defs
     id="defs6" /><g
     transform="matrix(1.3333333,0,0,-1.3333333,0,260.86667)"
     id="g10"><g
       transform="scale(0.1)"
       id="g12"><path
         id="path14"
         style="fill:#1478c7;fill-opacity:1;fill-rule:nonzero;stroke:none"
         d="M 3968.5,0 H 0 V 1955.91 H 3968.5 V 0" /><path
         id="path16"
         style="fill:#ffffff;fill-opacity:1;fill-rule:nonzero;stroke:none"
         d="m 1069.73,1294.75 c -1.56,-69.2 -9.86,-142.4 -20.39,-186.05 3.79,75.3 -5.26,181.53 -22.62,264.53 -17.33,83.01 -66.329,221.4 -105.509,285.65 -36.106,-61.08 -80.676,-180.95 -104.023,-284.94 -23.399,-104.09 -24.122,-229.91 -24.122,-267.64 -6.179,31.91 -21.777,145.29 -17.351,259.33 3.66,94.08 25.652,190.73 37.754,235.19 45.957,148.56 97.976,243.41 107.742,258.47 9.805,-15.06 75.371,-131.93 109.339,-254.72 33.83,-122.92 40.6,-240.47 39.18,-309.82 z M 922.031,764.371 c -20.39,38.438 -52.07,111.52 -55.097,224.367 -0.782,109.242 42.961,202.872 55.703,222.412 11.406,-19.54 49.082,-101.04 53.586,-212.587 C 979.258,889.449 943.066,803.57 922.031,764.371 M 1081.76,1603.08 C 1040.31,1784.7 936.34,1932.33 922.031,1956.52 899.297,1922.58 816.406,1792.2 774.246,1647.49 728.223,1486.13 721.484,1343.01 737.363,1202.08 753.125,1061.2 812.715,916.5 812.715,916.5 c 31.64,-76.02 79.043,-157.301 109.922,-197.281 45.261,58.801 149.323,234.16 181.753,463.321 18.03,127.32 18.79,238.92 -22.63,420.54" /><path
         id="path18"
         style="fill:#ffffff;fill-opacity:1;fill-rule:nonzero;stroke:none"
         d="M 992.383,676.891 H 676.973 V 465.23 c 0.261,0.27 0.488,0.61 0.8,0.879 74.317,74.243 194.805,74.243 269.122,0 74.315,-74.308 74.315,-194.82 0,-269.078 -0.313,-0.371 -0.625,-0.609 -0.977,-0.922 0,-0.058 0,-0.058 -0.039,-0.058 -0.305,-0.332 -0.742,-0.653 -1.074,-1.031 C 870.723,121.469 773.828,84.5781 676.973,84.5781 c -97.285,0 -194.602,37.2309 -268.868,111.3199 -130.769,130.84 -146.289,333.262 -46.562,480.993 13.477,20.007 28.887,38.898 46.562,56.558 74.266,74.242 171.583,111.262 268.868,111.262 V 1353.64 C 303.113,1353.64 0,1050.5 0,676.891 0,303.059 303.113,0 676.973,0 871.926,0 1047.52,82.4609 1171,214.25 V 676.891 H 992.383" /><path
         id="path20"
         style="fill:#ffffff;fill-opacity:1;fill-rule:nonzero;stroke:none"
         d="m 1250.84,1358.85 h 249.59 v -84.22 H 1381.66 V 680.59 h -130.82 v 678.26" /><path
         id="path22"
         style="fill:#ffffff;fill-opacity:1;fill-rule:nonzero;stroke:none"
         d="m 1503.46,680.59 h 128.02 l 12.18,180.18 h 61.77 l 12.1,-180.18 h 128.08 l -68.24,678.26 h -205.69 z m 144.87,254.832 22.53,339.258 h 7.34 l 22.5,-339.258 h -52.37" /><path
         id="path24"
         style="fill:#ffffff;fill-opacity:1;fill-rule:nonzero;stroke:none"
         d="M 2032.98,918.02 V 790.371 c 0,-17.473 13.06,-22.371 20.54,-22.371 12.16,0 20.62,10.668 20.62,22.371 v 157.68 c 0,21.359 -3.8,44.554 -52.45,44.554 h -53.26 v 74.595 h 55.06 c 37.41,0 50.65,8.81 50.65,50.41 v 134.81 c 0,11.71 -8.46,22.21 -20.62,22.21 -7.48,0 -20.54,-4.74 -20.54,-22.21 v -110.65 h -130.89 v 95.91 c 0,47.49 5.61,121.17 97.14,121.17 h 108.52 c 91.69,0 97.29,-73.68 97.29,-121.17 v -108.53 c 0,-73.61 -49.58,-93.92 -88.9,-91.95 v -6.86 c 87.86,2.09 88.9,-67.754 88.9,-92.07 V 801.75 c 0,-47.48 -5.6,-121.16 -97.29,-121.16 h -108.52 c -91.53,0 -97.14,73.68 -97.14,121.16 v 116.27 h 130.89" /><path
         id="path26"
         style="fill:#ffffff;fill-opacity:1;fill-rule:nonzero;stroke:none"
         d="m 2291.02,1358.85 h 302.95 V 680.59 h -130.84 v 594.04 h -41.16 V 680.59 h -130.95 v 678.26" /><path
         id="path28"
         style="fill:#ffffff;fill-opacity:1;fill-rule:nonzero;stroke:none"
         d="m 2680.03,680.59 h 130.82 v 230.66 h 74.78 c 91.68,0 97.36,73.629 97.36,121.18 v 205.25 c 0,47.49 -5.68,121.17 -97.36,121.17 h -205.6 z m 130.82,305.316 v 288.724 h 16.73 c 14.22,0 24.33,-12.57 24.33,-33.76 v -221.19 c 0,-21.325 -10.11,-33.774 -24.33,-33.774 h -16.73" /><path
         id="path30"
         style="fill:#ffffff;fill-opacity:1;fill-rule:nonzero;stroke:none"
         d="m 3069.04,801.75 c 0,-47.48 5.46,-121.16 97.11,-121.16 h 108.4 c 91.64,0 97.25,73.68 97.25,121.16 v 435.93 c 0,47.49 -5.61,121.17 -97.25,121.17 h -108.4 c -91.65,0 -97.11,-73.68 -97.11,-121.17 z m 172,-11.379 c 0,-11.703 -8.49,-22.371 -20.58,-22.371 -7.57,0 -20.67,4.898 -20.67,22.371 v 462.049 c 0,17.47 13.1,22.21 20.67,22.21 12.09,0 20.58,-10.5 20.58,-22.21 V 790.371" /><path
         id="path32"
         style="fill:#ffffff;fill-opacity:1;fill-rule:nonzero;stroke:none"
         d="m 3798.13,1358.85 h 170.21 V 680.59 h -131.02 v 425.37 h -4.6 l -67.37,-425.37 h -104.66 l -67.3,425.37 h -4.67 V 680.59 H 3457.8 v 678.26 h 170.1 l 85.06,-476.702 85.17,476.702" /><path
         id="path34"
         style="fill:#ffffff;fill-opacity:1;fill-rule:nonzero;stroke:none"
         d="M 3968.5,466.539 H 1250.16 V 0 H 3968.5 v 466.539" /><path
         id="path36"
         style="fill:#1478c7;fill-opacity:1;fill-rule:nonzero;stroke:none"
         d="m 1368.2,251.512 29.87,70.597 h 46.41 l -39.25,-78.257 39.25,-98.981 h -44.93 l -19.75,61.707 -11.6,-20.488 v -41.219 h -40.72 v 177.238 h 40.72 v -70.597" /><path
         id="path38"
         style="fill:#1478c7;fill-opacity:1;fill-rule:nonzero;stroke:none"
         d="m 1501.25,278.91 v -89.851 c 0,-10.618 7.4,-15.797 14.81,-15.797 7.16,0 14.82,5.179 14.82,15.797 v 89.851 c 0,10.121 -7.66,14.559 -14.82,14.559 -7.41,0 -14.81,-4.438 -14.81,-14.559 z m 72.32,-2.969 v -79.48 c 0,-35.301 -17.52,-55.793 -57.51,-55.793 -39.5,0 -57.52,20.492 -57.52,55.793 v 79.738 c 0,27.891 17.53,49.86 57.77,49.86 40.23,0 57.26,-22.469 57.26,-50.118" /><path
         id="path40"
         style="fill:#1478c7;fill-opacity:1;fill-rule:nonzero;stroke:none"
         d="m 1710.09,214.98 v -16.55 c 0,-40.231 -18.27,-57.762 -57.77,-57.762 -39.24,0 -57.76,17.293 -57.76,58.012 v 77.261 c 0,27.899 17.28,50.118 57.76,50.118 39.99,0 57.77,-22.707 57.77,-50.36 v -12.097 h -42.71 v 16.046 c 0,9.383 -8.88,13.821 -15.54,13.821 -7.17,0 -14.57,-3.938 -14.57,-13.078 V 192.02 c 0,-13.329 5.68,-18.758 14.57,-18.758 9.13,0 15.54,4.929 15.54,18.258 v 23.46 h 42.71" /><path
         id="path42"
         style="fill:#1478c7;fill-opacity:1;fill-rule:nonzero;stroke:none"
         d="m 1792.29,322.109 13.82,-71.839 c 2.96,-14.559 4.44,-39.25 6.42,-56.032 h 0.5 c 1.97,16.043 3.94,43.442 6.4,56.032 l 13.83,71.839 h 59.49 V 144.871 h -40.72 v 62.207 c 0,17.031 1.23,62.453 2.22,77.262 H 1854 l -26.41,-139.469 h -29.62 l -26.42,139.469 h -0.24 c 0.74,-12.34 2.22,-53.07 2.22,-77.02 v -62.449 h -40.74 v 177.238 h 59.5" /><path
         id="path44"
         style="fill:#1478c7;fill-opacity:1;fill-rule:nonzero;stroke:none"
         d="m 1958.16,322.109 v -43.941 c 0,-19.5 -5.43,-47.887 -6.41,-67.387 h 0.24 l 36.04,111.328 h 40.73 V 144.871 h -40.73 v 41.219 c 0,19.012 5.93,47.89 7.91,66.648 h -0.26 l -36.77,-107.867 h -41.47 v 177.238 h 40.72" /><path
         id="path46"
         style="fill:#1478c7;fill-opacity:1;fill-rule:nonzero;stroke:none"
         d="m 2094.18,322.109 v -59.5 c 0,-8.379 3.7,-12.339 11.85,-12.339 6.41,0 10.85,1 16.04,3.46 v 68.379 h 42.71 V 144.871 h -42.71 v 75.289 c -9.13,-2.469 -15.56,-3.449 -32.33,-3.449 -15.56,0 -38.27,11.098 -38.27,42.199 v 63.199 h 42.71" /><path
         id="path48"
         style="fill:#1478c7;fill-opacity:1;fill-rule:nonzero;stroke:none"
         d="m 2189.46,322.109 h 99.23 v -33.578 h -56.52 V 253.73 h 50.6 v -33.57 h -50.6 v -41.719 h 56.52 v -33.57 h -99.23 v 177.238" /><path
         id="path50"
         style="fill:#1478c7;fill-opacity:1;fill-rule:nonzero;stroke:none"
         d="m 2420.75,214.98 v -16.55 c 0,-40.231 -18.26,-57.762 -57.75,-57.762 -39.26,0 -57.77,17.293 -57.77,58.012 v 77.261 c 0,27.899 17.28,50.118 57.77,50.118 39.98,0 57.75,-22.707 57.75,-50.36 v -12.097 h -42.7 v 16.046 c 0,9.383 -8.89,13.821 -15.55,13.821 -7.16,0 -14.56,-3.938 -14.56,-13.078 V 192.02 c 0,-13.329 5.67,-18.758 14.56,-18.758 9.13,0 15.55,4.929 15.55,18.258 v 23.46 h 42.7" /><path
         id="path52"
         style="fill:#1478c7;fill-opacity:1;fill-rule:nonzero;stroke:none"
         d="m 2484.2,251.512 29.86,70.597 h 46.41 l -39.25,-78.257 39.25,-98.981 h -44.92 l -19.75,61.707 -11.6,-20.488 v -41.219 h -40.73 v 177.238 h 40.73 v -70.597" /><path
         id="path54"
         style="fill:#1478c7;fill-opacity:1;fill-rule:nonzero;stroke:none"
         d="m 2617.25,322.109 v -43.941 c 0,-19.5 -5.43,-47.887 -6.43,-67.387 h 0.25 l 36.04,111.328 h 40.73 V 144.871 h -40.73 v 41.219 c 0,19.012 5.93,47.89 7.9,66.648 h -0.24 l -36.79,-107.867 h -41.47 v 177.238 h 40.74" /><path
         id="path56"
         style="fill:#1478c7;fill-opacity:1;fill-rule:nonzero;stroke:none"
         d="m 2712.53,322.109 h 99.23 v -33.578 h -56.53 V 253.73 h 50.61 v -33.57 h -50.61 v -41.719 h 56.53 v -33.57 h -99.23 v 177.238" /><path
         id="path58"
         style="fill:#1478c7;fill-opacity:1;fill-rule:nonzero;stroke:none"
         d="m 3008.5,214.98 v -16.55 c 0,-40.231 -18.27,-57.762 -57.76,-57.762 -39.26,0 -57.76,17.293 -57.76,58.012 v 77.261 c 0,27.899 17.27,50.118 57.76,50.118 39.98,0 57.76,-22.707 57.76,-50.36 v -12.097 h -42.71 v 16.046 c 0,9.383 -8.89,13.821 -15.55,13.821 -7.15,0 -14.56,-3.938 -14.56,-13.078 V 192.02 c 0,-13.329 5.68,-18.758 14.56,-18.758 9.14,0 15.55,4.929 15.55,18.258 v 23.46 h 42.71" /><path
         id="path60"
         style="fill:#1478c7;fill-opacity:1;fill-rule:nonzero;stroke:none"
         d="m 3071.94,322.109 v -43.941 c 0,-19.5 -5.43,-47.887 -6.42,-67.387 h 0.25 l 36.04,111.328 h 40.73 V 144.871 h -40.73 v 41.219 c 0,19.012 5.92,47.89 7.9,66.648 h -0.25 l -36.78,-107.867 h -41.47 v 177.238 h 40.73" /><path
         id="path62"
         style="fill:#1478c7;fill-opacity:1;fill-rule:nonzero;stroke:none"
         d="m 3280.76,214.98 v -16.55 c 0,-40.231 -18.26,-57.762 -57.75,-57.762 -39.26,0 -57.77,17.293 -57.77,58.012 v 77.261 c 0,27.899 17.28,50.118 57.77,50.118 39.98,0 57.75,-22.707 57.75,-50.36 v -12.097 h -42.7 v 16.046 c 0,9.383 -8.89,13.821 -15.55,13.821 -7.16,0 -14.56,-3.938 -14.56,-13.078 V 192.02 c 0,-13.329 5.67,-18.758 14.56,-18.758 9.13,0 15.55,4.929 15.55,18.258 v 23.46 h 42.7" /><path
         id="path64"
         style="fill:#1478c7;fill-opacity:1;fill-rule:nonzero;stroke:none"
         d="m 3367.9,144.871 h -39.25 v 143.66 h -33.57 v 33.578 h 104.17 v -33.578 h -31.35 v -143.66" /><path
         id="path66"
         style="fill:#1478c7;fill-opacity:1;fill-rule:nonzero;stroke:none"
         d="m 3416.04,322.109 h 99.23 v -33.578 h -56.52 V 253.73 h 50.61 v -33.57 h -50.61 v -41.719 h 56.52 v -33.57 h -99.23 v 177.238" /><path
         id="path68"
         style="fill:#1478c7;fill-opacity:1;fill-rule:nonzero;stroke:none"
         d="m 3593.28,322.109 13.82,-71.839 c 2.97,-14.559 4.44,-39.25 6.42,-56.032 h 0.49 c 1.98,16.043 3.95,43.442 6.42,56.032 l 13.83,71.839 h 59.49 V 144.871 h -40.73 v 62.207 c 0,17.031 1.23,62.453 2.21,77.262 h -0.24 l -26.42,-139.469 h -29.61 l -26.42,139.469 h -0.25 c 0.75,-12.34 2.23,-53.07 2.23,-77.02 v -62.449 h -40.73 v 177.238 h 59.49" /><path
         id="path70"
         style="fill:#1478c7;fill-opacity:1;fill-rule:nonzero;stroke:none"
         d="m 3891.96,144.871 h -42.7 v 177.238 h 42.7 z m -130.83,31.848 h 7.41 c 12.34,0 20.98,4.191 20.98,21.711 0,17.781 -9.63,23.461 -20.24,23.461 h -8.15 z m 0,77.011 h 19.25 c 25.19,0 51.85,-11.109 51.85,-54.8 0,-45.168 -27.16,-54.059 -51.85,-54.059 h -61.95 v 177.238 h 42.7 V 253.73" /></g></g></svg>